<svg aria-hidden="true" style="position: absolute; width: 0; height: 0; overflow: hidden;" version="1.1" xmlns="http://www.w3.org/2000/svg" xmlns:xlink="http://www.w3.org/1999/xlink">
<defs>
<symbol id="facebook-reviews" viewBox="0 0 32 32">
<path fill="#475993" style="fill: var(--color1, #475993)" d="M27.688 0h-23.376c-2.381 0-4.312 1.931-4.312 4.312v23.376c0 2.382 1.931 4.312 4.312 4.312h11.529l0.020-11.435h-2.971c-0.386 0-0.699-0.312-0.701-0.698l-0.014-3.686c-0.002-0.388 0.313-0.704 0.701-0.704h2.965v-3.562c0-4.133 2.524-6.384 6.211-6.384h3.026c0.387 0 0.701 0.314 0.701 0.701v3.108c0 0.387-0.314 0.701-0.701 0.701l-1.857 0.001c-2.005 0-2.393 0.953-2.393 2.351v3.083h4.406c0.42 0 0.746 0.367 0.696 0.784l-0.437 3.686c-0.042 0.353-0.341 0.619-0.696 0.619h-3.949l-0.020 11.435h6.86c2.381 0 4.312-1.931 4.312-4.312v-23.376c-0-2.382-1.931-4.312-4.312-4.312z"></path>
</symbol>
<symbol id="icon-logo-dark-mobile" viewBox="0 0 88 32">
<path d="M12.344 4.825v12.913h-3.67v-5.037h-5.004v5.036h-3.67v-12.911h3.67v4.851h5.004v-4.851h3.67zM25.777 12.757c0 0.024-0.019 0.313-0.055 0.867h-7.303c0.148 0.516 0.433 0.916 0.852 1.198 0.433 0.271 0.971 0.406 1.613 0.406 0.481 0 0.896-0.067 1.241-0.203 0.359-0.135 0.717-0.356 1.075-0.664l1.854 1.919c-0.975 1.081-2.403 1.623-4.281 1.623-1.174 0-2.207-0.221-3.095-0.664-0.89-0.441-1.582-1.057-2.077-1.844-0.482-0.788-0.723-1.679-0.723-2.675 0-0.984 0.235-1.864 0.704-2.638 0.485-0.785 1.158-1.413 1.956-1.832l0.028-0.013c0.84-0.442 1.785-0.664 2.836-0.664 1.001 0 1.909 0.21 2.726 0.628 0.814 0.406 1.457 1.002 1.927 1.789 0.482 0.776 0.723 1.697 0.723 2.767zM20.42 10.065c-0.544 0-1.001 0.153-1.372 0.46-0.359 0.308-0.587 0.726-0.686 1.255h4.116c-0.099-0.53-0.334-0.947-0.705-1.255-0.359-0.307-0.81-0.461-1.353-0.461zM28.142 4.050h3.521v13.688h-3.521v-13.688zM34.694 4.050h3.522v13.688h-3.522v-13.688z"></path>
<path fill="#ff6b09" style="fill: var(--color2, #ff6b09)" d="M4 27.066v3.862h-0.894v-1.583h-1.754v1.583h-0.894v-3.862h0.894v1.523h1.754v-1.523h0.894zM8.897 30.211v0.717h-2.99v-3.862h2.919v0.717h-2.030v0.839h1.793v0.695h-1.793v0.894h2.102zM10.602 27.066h0.894v3.134h1.937v0.728h-2.83v-3.862zM14.924 27.066h0.894v3.134h1.937v0.728h-2.83v-3.862zM19.247 27.066h0.894v3.862h-0.894v-3.862zM23.319 30.995c-0.305 0-0.601-0.041-0.888-0.121-0.261-0.072-0.489-0.183-0.69-0.33l0.006 0.004 0.303-0.673c0.166 0.121 0.363 0.218 0.59 0.292 0.228 0.074 0.457 0.11 0.684 0.11 0.254 0 0.441-0.038 0.563-0.11 0.121-0.077 0.182-0.179 0.182-0.303 0-0.001 0-0.003 0-0.005 0-0.090-0.043-0.17-0.11-0.221l-0.001-0c-0.077-0.066-0.169-0.117-0.27-0.148l-0.005-0.001c-0.112-0.038-0.263-0.080-0.418-0.115l-0.035-0.007c-0.29-0.066-0.531-0.138-0.766-0.224l0.044 0.014c-0.193-0.073-0.356-0.188-0.484-0.335l-0.001-0.001c-0.132-0.154-0.199-0.361-0.199-0.618 0-0.225 0.061-0.427 0.182-0.607 0.121-0.184 0.303-0.33 0.546-0.436 0.247-0.107 0.546-0.16 0.899-0.16 0.247 0 0.488 0.029 0.723 0.088 0.236 0.058 0.441 0.143 0.618 0.254l-0.276 0.679c-0.306-0.185-0.674-0.297-1.069-0.303l-0.002-0c-0.249 0-0.436 0.041-0.557 0.121-0.107 0.067-0.177 0.183-0.177 0.316 0 0.001 0 0.003 0 0.004v-0c0 0.132 0.068 0.232 0.204 0.298 0.14 0.062 0.352 0.125 0.634 0.188 0.295 0.070 0.535 0.14 0.723 0.21s0.348 0.18 0.48 0.331c0.137 0.15 0.204 0.354 0.204 0.612 0 0.221-0.062 0.423-0.188 0.607-0.121 0.18-0.305 0.323-0.552 0.43-0.248 0.102-0.536 0.161-0.837 0.161-0.022 0-0.044-0-0.065-0.001l0.003 0zM30.104 27.066v3.862h-0.894v-1.583h-1.754v1.583h-0.894v-3.862h0.894v1.523h1.754v-1.523h0.894z"></path>
<path d="M37.557 30.211v0.717h-2.99v-3.862h2.919v0.717h-2.030v0.839h1.793v0.695h-1.794v0.894h2.102zM42.803 27.066v3.862h-0.734l-1.926-2.345v2.345h-0.883v-3.862h0.739l1.92 2.345v-2.345h0.883zM47.319 28.937h0.817v1.567c-0.21 0.158-0.452 0.279-0.728 0.364-0.276 0.084-0.553 0.127-0.833 0.127-0.401 0-0.761-0.085-1.081-0.254-0.314-0.169-0.569-0.41-0.75-0.703l-0.005-0.008c-0.17-0.287-0.271-0.633-0.271-1.002 0-0.010 0-0.021 0-0.031l-0 0.002c-0-0.015-0.001-0.033-0.001-0.051 0-0.732 0.415-1.366 1.022-1.682l0.011-0.005c0.323-0.173 0.687-0.259 1.092-0.259 0.338 0 0.646 0.056 0.921 0.171 0.276 0.114 0.508 0.279 0.695 0.497l-0.574 0.53c-0.244-0.268-0.594-0.436-0.984-0.436-0.005 0-0.011 0-0.016 0h0.001c-0.247 0-0.466 0.052-0.658 0.154-0.188 0.102-0.34 0.25-0.443 0.43l-0.003 0.005c-0.107 0.188-0.161 0.403-0.161 0.646 0 0.238 0.054 0.452 0.16 0.64 0.107 0.188 0.254 0.334 0.441 0.441 0.192 0.103 0.408 0.154 0.651 0.154 0.258 0 0.49-0.055 0.695-0.166v-1.131zM49.96 27.066h0.894v3.134h1.937v0.728h-2.83v-3.862zM54.282 27.066h0.894v3.862h-0.894v-3.862zM58.355 30.995c-0.305 0-0.601-0.041-0.888-0.121-0.261-0.072-0.489-0.184-0.69-0.33l0.006 0.004 0.303-0.673c0.166 0.121 0.362 0.218 0.59 0.292s0.456 0.11 0.684 0.11c0.254 0 0.441-0.038 0.563-0.11 0.121-0.077 0.182-0.179 0.182-0.303 0-0.002 0-0.004 0-0.005 0-0.090-0.043-0.17-0.11-0.22l-0.001-0c-0.077-0.066-0.169-0.117-0.271-0.148l-0.005-0.001c-0.112-0.038-0.263-0.080-0.418-0.115l-0.035-0.007c-0.29-0.066-0.531-0.138-0.767-0.224l0.044 0.014c-0.193-0.073-0.356-0.188-0.484-0.335l-0.001-0.001c-0.132-0.154-0.199-0.361-0.199-0.618 0-0.225 0.061-0.427 0.182-0.607 0.121-0.184 0.303-0.33 0.546-0.436 0.247-0.107 0.546-0.16 0.899-0.16 0.247 0 0.488 0.029 0.723 0.088 0.236 0.058 0.441 0.143 0.618 0.254l-0.276 0.679c-0.306-0.185-0.674-0.297-1.069-0.303l-0.002-0c-0.25 0-0.436 0.041-0.557 0.121-0.107 0.067-0.177 0.183-0.177 0.316 0 0.001 0 0.003 0 0.004v-0c0 0.132 0.068 0.232 0.204 0.298 0.14 0.062 0.352 0.125 0.634 0.188 0.29 0.066 0.531 0.138 0.766 0.224l-0.044-0.014c0.188 0.070 0.348 0.18 0.48 0.331 0.136 0.15 0.204 0.354 0.204 0.612 0 0.221-0.062 0.423-0.188 0.607-0.121 0.18-0.305 0.323-0.552 0.43-0.248 0.102-0.536 0.161-0.837 0.161-0.022 0-0.044-0-0.065-0.001l0.003 0zM65.14 27.066v3.862h-0.894v-1.583h-1.754v1.583h-0.894v-3.862h0.894v1.523h1.754v-1.523h0.894zM73.153 14.915v2.822h-10.417v-12.913h10.176v2.823h-6.543v2.176h5.764v2.731h-5.764v2.361h6.784zM88.276 4.824v12.913h-3.021l-5.727-6.88v6.88h-3.597v-12.913h3.022l5.727 6.881v-6.881h3.596z"></path>
<path fill="#ff6b09" style="fill: var(--color2, #ff6b09)" d="M57.546 11.037c-0.19-0.423-0.45-0.839-0.833-1.319-0.963-1.206-1.258-3.896-1.261-3.922-0.015-0.13-0.104-0.235-0.223-0.274l-0.002-0.001c-0.030-0.010-0.064-0.015-0.1-0.015-0.098 0-0.185 0.042-0.246 0.109l-0 0c-1.15 1.28-0.666 3.257-0.405 4.047 0.072 0.216 0.15 0.471 0.205 0.728 0.425 2.087-0.395 3.032-0.588 3.222-0.186 0.052-0.313 0.026-0.43-0.099-0.406-0.441-0.541-1.89-0.351-3.777 0.040-0.384 0.030-0.728-0.025-1.052-0.399-2.318-1.865-3.807-2.239-4.328-1.026-1.51-1.13-4.021-1.133-4.044-0.003-0.122-0.075-0.226-0.178-0.276l-0.002-0.001c-0.043-0.022-0.093-0.035-0.147-0.035-0.069 0-0.133 0.021-0.185 0.057l0.001-0.001c-1.71 1.159-1.565 3.948-1.325 5.506 0.055 0.361 0.163 0.728 0.349 1.192 0.664 1.662-0.13 3.807-0.137 3.826s-0.013 0.035-0.017 0.055c-0.1 0.529-0.27 0.844-0.46 0.844-0.022-0-0.043-0.003-0.063-0.009l0.002 0c-0.232-0.049-0.353-0.295-0.356-0.508-0.013-2.75-2.787-3.676-2.817-3.686s-0.064-0.016-0.1-0.016c-0.098 0-0.187 0.043-0.246 0.112l-0 0c-0.050 0.056-0.080 0.129-0.080 0.21 0 0.053 0.013 0.102 0.036 0.146l-0.001-0.002c0.033 0.068 0.137 0.364 0.066 1.412-0.069 1.012-0.252 1.955-0.538 2.852l0.023-0.085c-0.353 1.144-0.556 2.459-0.556 3.822 0 0.157 0.003 0.312 0.008 0.468l-0.001-0.023c0.508 5.492 8.445 6.455 13.155 3.36 0.515-0.339 0.938-0.726 1.247-1.151 1.739-2.387 0.717-5.628-0.044-7.35zM45.473 16.284c0 0.005 0 0.010 0 0.016 0 0.173-0.136 0.315-0.307 0.323l-0.001 0h-0.019c-0.001 0-0.003 0-0.004 0-0.172 0-0.312-0.134-0.324-0.302l-0-0.001c-0.012-0.194-0.018-0.42-0.018-0.648 0-0.3 0.011-0.597 0.034-0.891l-0.002 0.039c0.015-0.169 0.156-0.301 0.328-0.301 0.008 0 0.016 0 0.023 0.001l-0.001-0c0.171 0.011 0.305 0.152 0.305 0.325 0 0.007-0 0.014-0.001 0.021l0-0.001c-0.020 0.241-0.031 0.522-0.031 0.806 0 0.216 0.007 0.43 0.020 0.642l-0.001-0.029zM45.633 13.426c-0.020 0.161-0.156 0.285-0.321 0.285-0.001 0-0.002 0-0.002 0h0c-0.013 0-0.026 0-0.043-0.003-0.162-0.020-0.287-0.157-0.287-0.323 0-0.012 0.001-0.025 0.002-0.037l-0 0.002 0.158-1.245c0.024-0.161 0.161-0.283 0.327-0.283 0.014 0 0.027 0.001 0.040 0.002l-0.002-0c0.18 0.022 0.308 0.184 0.285 0.361l-0.157 1.242zM55.336 4.412c-0.157-0.024-0.276-0.158-0.276-0.32 0-0.017 0.001-0.033 0.004-0.049l-0 0.002c0.020-0.13 0.138-0.801 0.459-1.139 0.060-0.063 0.144-0.102 0.238-0.102 0.086 0 0.165 0.033 0.224 0.088l-0-0c0.064 0.059 0.103 0.142 0.103 0.235 0 0.085-0.033 0.163-0.088 0.22l0-0c-0.136 0.143-0.252 0.552-0.29 0.796-0.027 0.156-0.161 0.273-0.322 0.273-0.018 0-0.035-0.001-0.053-0.004l0.002 0zM43.424 6.018c-0.063-0.239-0.218-0.636-0.367-0.765-0.068-0.059-0.111-0.146-0.111-0.243 0-0.082 0.030-0.156 0.081-0.212l-0 0c0.060-0.068 0.148-0.11 0.246-0.11 0.083 0 0.158 0.030 0.216 0.081l-0-0c0.353 0.305 0.536 0.96 0.569 1.089 0.006 0.024 0.010 0.051 0.010 0.079 0 0.151-0.103 0.277-0.243 0.312l-0.002 0c-0.024 0.006-0.052 0.010-0.081 0.010-0.15 0-0.277-0.101-0.316-0.24l-0.001-0.002z"></path>
</symbol>
<symbol id="icon-logo-white-mobile" viewBox="0 0 88 32">
<path fill="#fff" style="fill: var(--color1, #fff)" d="M12.344 4.825v12.913h-3.67v-5.037h-5.004v5.036h-3.67v-12.911h3.67v4.851h5.004v-4.851h3.67zM25.777 12.757c0 0.024-0.019 0.313-0.055 0.867h-7.303c0.148 0.516 0.433 0.916 0.852 1.198 0.433 0.271 0.971 0.406 1.613 0.406 0.481 0 0.896-0.067 1.241-0.203 0.359-0.135 0.717-0.356 1.075-0.664l1.854 1.919c-0.975 1.081-2.403 1.623-4.281 1.623-1.174 0-2.207-0.221-3.095-0.664-0.89-0.441-1.582-1.057-2.077-1.844-0.482-0.788-0.723-1.679-0.723-2.675 0-0.984 0.235-1.864 0.704-2.638 0.485-0.785 1.158-1.413 1.956-1.832l0.028-0.013c0.84-0.442 1.785-0.664 2.836-0.664 1.001 0 1.909 0.21 2.726 0.628 0.814 0.406 1.457 1.002 1.927 1.789 0.482 0.776 0.723 1.697 0.723 2.767zM20.42 10.065c-0.544 0-1.001 0.153-1.372 0.46-0.359 0.308-0.587 0.726-0.686 1.255h4.116c-0.099-0.53-0.334-0.947-0.705-1.255-0.359-0.307-0.81-0.461-1.353-0.461zM28.142 4.050h3.521v13.688h-3.521v-13.688zM34.694 4.050h3.522v13.688h-3.522v-13.688z"></path>
<path fill="#ff6b09" style="fill: var(--color2, #ff6b09)" d="M4 27.066v3.862h-0.894v-1.583h-1.754v1.583h-0.894v-3.862h0.894v1.523h1.754v-1.523h0.894zM8.897 30.211v0.717h-2.99v-3.862h2.919v0.717h-2.030v0.839h1.793v0.695h-1.793v0.894h2.102zM10.602 27.066h0.894v3.134h1.937v0.728h-2.83v-3.862zM14.924 27.066h0.894v3.134h1.937v0.728h-2.83v-3.862zM19.247 27.066h0.894v3.862h-0.894v-3.862zM23.319 30.995c-0.305 0-0.601-0.041-0.888-0.121-0.261-0.072-0.489-0.183-0.69-0.33l0.006 0.004 0.303-0.673c0.166 0.121 0.363 0.218 0.59 0.292 0.228 0.074 0.457 0.11 0.684 0.11 0.254 0 0.441-0.038 0.563-0.11 0.121-0.077 0.182-0.179 0.182-0.303 0-0.001 0-0.003 0-0.005 0-0.090-0.043-0.17-0.11-0.221l-0.001-0c-0.077-0.066-0.169-0.117-0.27-0.148l-0.005-0.001c-0.112-0.038-0.263-0.080-0.418-0.115l-0.035-0.007c-0.29-0.066-0.531-0.138-0.766-0.224l0.044 0.014c-0.193-0.073-0.356-0.188-0.484-0.335l-0.001-0.001c-0.132-0.154-0.199-0.361-0.199-0.618 0-0.225 0.061-0.427 0.182-0.607 0.121-0.184 0.303-0.33 0.546-0.436 0.247-0.107 0.546-0.16 0.899-0.16 0.247 0 0.488 0.029 0.723 0.088 0.236 0.058 0.441 0.143 0.618 0.254l-0.276 0.679c-0.306-0.185-0.674-0.297-1.069-0.303l-0.002-0c-0.249 0-0.436 0.041-0.557 0.121-0.107 0.067-0.177 0.183-0.177 0.316 0 0.001 0 0.003 0 0.004v-0c0 0.132 0.068 0.232 0.204 0.298 0.14 0.062 0.352 0.125 0.634 0.188 0.295 0.070 0.535 0.14 0.723 0.21s0.348 0.18 0.48 0.331c0.137 0.15 0.204 0.354 0.204 0.612 0 0.221-0.062 0.423-0.188 0.607-0.121 0.18-0.305 0.323-0.552 0.43-0.248 0.102-0.536 0.161-0.837 0.161-0.022 0-0.044-0-0.065-0.001l0.003 0zM30.104 27.066v3.862h-0.894v-1.583h-1.754v1.583h-0.894v-3.862h0.894v1.523h1.754v-1.523h0.894z"></path>
<path fill="#fff" style="fill: var(--color1, #fff)" d="M37.557 30.211v0.717h-2.99v-3.862h2.919v0.717h-2.030v0.839h1.793v0.695h-1.794v0.894h2.102zM42.803 27.066v3.862h-0.734l-1.926-2.345v2.345h-0.883v-3.862h0.739l1.92 2.345v-2.345h0.883zM47.319 28.937h0.817v1.567c-0.21 0.158-0.452 0.279-0.728 0.364-0.276 0.084-0.553 0.127-0.833 0.127-0.401 0-0.761-0.085-1.081-0.254-0.314-0.169-0.569-0.41-0.75-0.703l-0.005-0.008c-0.17-0.287-0.271-0.633-0.271-1.002 0-0.010 0-0.021 0-0.031l-0 0.002c-0-0.015-0.001-0.033-0.001-0.051 0-0.732 0.415-1.366 1.022-1.682l0.011-0.005c0.323-0.173 0.687-0.259 1.092-0.259 0.338 0 0.646 0.056 0.921 0.171 0.276 0.114 0.508 0.279 0.695 0.497l-0.574 0.53c-0.244-0.268-0.594-0.436-0.984-0.436-0.005 0-0.011 0-0.016 0h0.001c-0.247 0-0.466 0.052-0.658 0.154-0.188 0.102-0.34 0.25-0.443 0.43l-0.003 0.005c-0.107 0.188-0.161 0.403-0.161 0.646 0 0.238 0.054 0.452 0.16 0.64 0.107 0.188 0.254 0.334 0.441 0.441 0.192 0.103 0.408 0.154 0.651 0.154 0.258 0 0.49-0.055 0.695-0.166v-1.131zM49.96 27.066h0.894v3.134h1.937v0.728h-2.83v-3.862zM54.282 27.066h0.894v3.862h-0.894v-3.862zM58.355 30.995c-0.305 0-0.601-0.041-0.888-0.121-0.261-0.072-0.489-0.184-0.69-0.33l0.006 0.004 0.303-0.673c0.166 0.121 0.362 0.218 0.59 0.292s0.456 0.11 0.684 0.11c0.254 0 0.441-0.038 0.563-0.11 0.121-0.077 0.182-0.179 0.182-0.303 0-0.002 0-0.004 0-0.005 0-0.090-0.043-0.17-0.11-0.22l-0.001-0c-0.077-0.066-0.169-0.117-0.271-0.148l-0.005-0.001c-0.112-0.038-0.263-0.080-0.418-0.115l-0.035-0.007c-0.29-0.066-0.531-0.138-0.767-0.224l0.044 0.014c-0.193-0.073-0.356-0.188-0.484-0.335l-0.001-0.001c-0.132-0.154-0.199-0.361-0.199-0.618 0-0.225 0.061-0.427 0.182-0.607 0.121-0.184 0.303-0.33 0.546-0.436 0.247-0.107 0.546-0.16 0.899-0.16 0.247 0 0.488 0.029 0.723 0.088 0.236 0.058 0.441 0.143 0.618 0.254l-0.276 0.679c-0.306-0.185-0.674-0.297-1.069-0.303l-0.002-0c-0.25 0-0.436 0.041-0.557 0.121-0.107 0.067-0.177 0.183-0.177 0.316 0 0.001 0 0.003 0 0.004v-0c0 0.132 0.068 0.232 0.204 0.298 0.14 0.062 0.352 0.125 0.634 0.188 0.29 0.066 0.531 0.138 0.766 0.224l-0.044-0.014c0.188 0.070 0.348 0.18 0.48 0.331 0.136 0.15 0.204 0.354 0.204 0.612 0 0.221-0.062 0.423-0.188 0.607-0.121 0.18-0.305 0.323-0.552 0.43-0.248 0.102-0.536 0.161-0.837 0.161-0.022 0-0.044-0-0.065-0.001l0.003 0zM65.14 27.066v3.862h-0.894v-1.583h-1.754v1.583h-0.894v-3.862h0.894v1.523h1.754v-1.523h0.894zM73.153 14.915v2.822h-10.417v-12.913h10.176v2.823h-6.543v2.176h5.764v2.731h-5.764v2.361h6.784zM88.276 4.824v12.913h-3.021l-5.727-6.88v6.88h-3.597v-12.913h3.022l5.727 6.881v-6.881h3.596z"></path>
<path fill="#ff6b09" style="fill: var(--color2, #ff6b09)" d="M57.546 11.037c-0.19-0.423-0.45-0.839-0.833-1.319-0.963-1.206-1.258-3.896-1.261-3.922-0.015-0.13-0.104-0.235-0.223-0.274l-0.002-0.001c-0.030-0.010-0.064-0.015-0.1-0.015-0.098 0-0.185 0.042-0.246 0.109l-0 0c-1.15 1.28-0.666 3.257-0.405 4.047 0.072 0.216 0.15 0.471 0.205 0.728 0.425 2.087-0.395 3.032-0.588 3.222-0.186 0.052-0.313 0.026-0.43-0.099-0.406-0.441-0.541-1.89-0.351-3.777 0.040-0.384 0.030-0.728-0.025-1.052-0.399-2.318-1.865-3.807-2.239-4.328-1.026-1.51-1.13-4.021-1.133-4.044-0.003-0.122-0.075-0.226-0.178-0.276l-0.002-0.001c-0.043-0.022-0.093-0.035-0.147-0.035-0.069 0-0.133 0.021-0.185 0.057l0.001-0.001c-1.71 1.159-1.565 3.948-1.325 5.506 0.055 0.361 0.163 0.728 0.349 1.192 0.664 1.662-0.13 3.807-0.137 3.826s-0.013 0.035-0.017 0.055c-0.1 0.529-0.27 0.844-0.46 0.844-0.022-0-0.043-0.003-0.063-0.009l0.002 0c-0.232-0.049-0.353-0.295-0.356-0.508-0.013-2.75-2.787-3.676-2.817-3.686s-0.064-0.016-0.1-0.016c-0.098 0-0.187 0.043-0.246 0.112l-0 0c-0.050 0.056-0.080 0.129-0.080 0.21 0 0.053 0.013 0.102 0.036 0.146l-0.001-0.002c0.033 0.068 0.137 0.364 0.066 1.412-0.069 1.012-0.252 1.955-0.538 2.852l0.023-0.085c-0.353 1.144-0.556 2.459-0.556 3.822 0 0.157 0.003 0.312 0.008 0.468l-0.001-0.023c0.508 5.492 8.445 6.455 13.155 3.36 0.515-0.339 0.938-0.726 1.247-1.151 1.739-2.387 0.717-5.628-0.044-7.35zM45.473 16.284c0 0.005 0 0.010 0 0.016 0 0.173-0.136 0.315-0.307 0.323l-0.001 0h-0.019c-0.001 0-0.003 0-0.004 0-0.172 0-0.312-0.134-0.324-0.302l-0-0.001c-0.012-0.194-0.018-0.42-0.018-0.648 0-0.3 0.011-0.597 0.034-0.891l-0.002 0.039c0.015-0.169 0.156-0.301 0.328-0.301 0.008 0 0.016 0 0.023 0.001l-0.001-0c0.171 0.011 0.305 0.152 0.305 0.325 0 0.007-0 0.014-0.001 0.021l0-0.001c-0.020 0.241-0.031 0.522-0.031 0.806 0 0.216 0.007 0.43 0.020 0.642l-0.001-0.029zM45.633 13.426c-0.020 0.161-0.156 0.285-0.321 0.285-0.001 0-0.002 0-0.002 0h0c-0.013 0-0.026 0-0.043-0.003-0.162-0.020-0.287-0.157-0.287-0.323 0-0.012 0.001-0.025 0.002-0.037l-0 0.002 0.158-1.245c0.024-0.161 0.161-0.283 0.327-0.283 0.014 0 0.027 0.001 0.040 0.002l-0.002-0c0.18 0.022 0.308 0.184 0.285 0.361l-0.157 1.242zM55.336 4.412c-0.157-0.024-0.276-0.158-0.276-0.32 0-0.017 0.001-0.033 0.004-0.049l-0 0.002c0.020-0.13 0.138-0.801 0.459-1.139 0.060-0.063 0.144-0.102 0.238-0.102 0.086 0 0.165 0.033 0.224 0.088l-0-0c0.064 0.059 0.103 0.142 0.103 0.235 0 0.085-0.033 0.163-0.088 0.22l0-0c-0.136 0.143-0.252 0.552-0.29 0.796-0.027 0.156-0.161 0.273-0.322 0.273-0.018 0-0.035-0.001-0.053-0.004l0.002 0zM43.424 6.018c-0.063-0.239-0.218-0.636-0.367-0.765-0.068-0.059-0.111-0.146-0.111-0.243 0-0.082 0.030-0.156 0.081-0.212l-0 0c0.060-0.068 0.148-0.11 0.246-0.11 0.083 0 0.158 0.030 0.216 0.081l-0-0c0.353 0.305 0.536 0.96 0.569 1.089 0.006 0.024 0.010 0.051 0.010 0.079 0 0.151-0.103 0.277-0.243 0.312l-0.002 0c-0.024 0.006-0.052 0.010-0.081 0.010-0.15 0-0.277-0.101-0.316-0.24l-0.001-0.002z"></path>
</symbol>
<symbol id="burger-menu" viewBox="0 0 48 32">
<path d="M0 0h46.857v4.571h-46.857v-4.571z"></path>
<path d="M0 13.714h46.857v4.571h-46.857v-4.571z"></path>
<path d="M0 27.429h46.857v4.571h-46.857v-4.571z"></path>
</symbol>
<symbol id="close-btn" viewBox="0 0 32 32">
<path d="M0.538 28.948l28.41-28.41 2.514 2.514-28.41 28.41-2.514-2.514z"></path>
<path d="M0.539 3.053l2.514-2.514 28.41 28.41-2.514 2.514-28.41-28.41z"></path>
</symbol>

</defs>
</svg>
