<svg aria-hidden="true" style="position: absolute; width: 0; height: 0; overflow: hidden;" version="1.1" xmlns="http://www.w3.org/2000/svg" xmlns:xlink="http://www.w3.org/1999/xlink">
<defs>
<symbol id="facebook-reviews" viewBox="0 0 32 32">
<path fill="#475993" style="fill: var(--color1, #475993)" d="M27.688 0h-23.376c-2.381 0-4.312 1.931-4.312 4.312v23.376c0 2.382 1.931 4.312 4.312 4.312h11.529l0.020-11.435h-2.971c-0.386 0-0.699-0.312-0.701-0.698l-0.014-3.686c-0.002-0.388 0.313-0.704 0.701-0.704h2.965v-3.562c0-4.133 2.524-6.384 6.211-6.384h3.026c0.387 0 0.701 0.314 0.701 0.701v3.108c0 0.387-0.314 0.701-0.701 0.701l-1.857 0.001c-2.005 0-2.393 0.953-2.393 2.351v3.083h4.406c0.42 0 0.746 0.367 0.696 0.784l-0.437 3.686c-0.042 0.353-0.341 0.619-0.696 0.619h-3.949l-0.020 11.435h6.86c2.381 0 4.312-1.931 4.312-4.312v-23.376c-0-2.382-1.931-4.312-4.312-4.312z"></path>
</symbol>
</defs>
</svg>
