<svg width="40" height="48" viewBox="0 0 40 48" fill="none" xmlns="http://www.w3.org/2000/svg">
<g clip-path="url(#clip0_1_3423)">
<path d="M-0.15347 47.638C5.00796 47.638 34.8682 47.638 40.0236 47.638C40.2225 43.0562 39.8943 35.4543 37.0773 31.8361L36.9755 31.7062L30.8197 28.6154C30.9534 28.1646 31.0192 27.7516 31.0456 27.448C31.076 27.0836 31.0258 26.7413 30.8957 26.4313C29.8801 24.0011 27.7312 22.7226 26.5491 22.1776C26.9094 21.4519 27.1416 20.6727 27.2538 19.8767C27.9229 19.6882 28.4611 19.1579 28.6376 18.4505L29.3561 15.5314C29.4834 15.0165 29.4035 14.4824 29.1298 14.0283C29.012 13.8324 28.8597 13.6676 28.6889 13.5267C30.7147 8.92504 27.3218 4.58618 27.1369 4.35779C23.4622 0.384782 18.8201 1.12768 18.5747 1.17171C11.8756 2.5745 9.2903 7.70865 10.7499 13.7301C10.3174 14.2091 10.136 14.8764 10.2962 15.5307L11.0182 18.453C11.1933 19.1552 11.7273 19.6836 12.3916 19.8743C12.5966 21.3322 13.2137 22.6508 14.12 23.7135V26.0275C4.50666 30.9506 10.598 27.8098 2.89388 31.7072C2.87865 31.78 -0.721045 35.6057 -0.186001 46.9452L-0.15347 47.638ZM38.6275 46.1834H32.0152V43.4057L36.3885 33.394C38.5794 37.0304 38.6608 43.9736 38.6275 46.1834ZM29.6029 27.3244C29.3477 30.2557 27.7402 29.3697 26.7479 31.628C25.9674 30.7698 25.7327 29.7407 25.9424 28.639C26.3214 26.6163 25.0868 26.0155 25.3919 23.8902L25.4382 23.8415V23.8347C25.4644 23.8054 25.7079 23.5155 25.7783 23.4239C28.3945 24.5643 29.6539 26.6853 29.6029 27.3244ZM15.5684 25.0204C16.7829 25.8628 18.2489 26.3606 19.8258 26.3606C21.3108 26.3606 22.7213 25.9285 23.9305 25.1328C24.0981 26.8037 24.7512 27.1382 24.5195 28.3677C24.476 28.596 24.4525 28.8209 24.4386 29.0421L19.9354 34.1174L14.1788 27.6275L15.5684 26.9018V25.0204H15.5684ZM13.758 18.8091V15.9952C13.758 14.959 13.758 10.848 13.758 11.051C14.4588 9.75481 15.4142 8.81482 16.6016 8.25126C19.7818 10.0506 23.4423 12.7359 25.8971 15.4385C25.8948 18.8801 25.9068 18.8895 25.884 19.1723L25.8824 19.1902C25.6909 22.3155 23.1211 24.9061 19.8258 24.9061C16.6221 24.9061 13.9623 22.3908 13.77 19.1593C13.7601 19.0435 13.758 18.9274 13.758 18.8091ZM12.8612 28.3294L19.9354 36.3042L24.6848 30.9514C24.7933 31.264 24.9456 31.5592 25.1197 31.8444L19.9354 38.3276L12.2046 28.659L12.8612 28.3294ZM27.3455 17.6387V15.3919C27.4091 15.3189 27.9491 14.6998 27.8854 14.7728C27.9153 15.9104 28.0381 14.5677 27.3455 17.6387ZM18.8428 2.60105C19.1301 2.61894 22.9905 2.01386 26.0414 5.30773C26.1615 5.45848 28.6451 8.65836 27.6473 12.1589C27.3058 10.6012 26.7106 8.60514 25.7698 7.65254L24.7416 8.67669C25.6704 9.61747 26.2805 12.4824 26.5129 13.9676C22.2523 9.50928 16.7562 6.68751 16.6808 6.63976C16.4052 6.81119 14.0794 7.25337 12.3902 10.5364L12.3096 10.6934V13.1046C12.2371 13.1054 12.0242 13.1076 12.0967 13.1069C11.0234 7.92535 13.0787 3.8092 18.8428 2.60105ZM11.9441 14.6032L12.3096 16.084V17.6405L11.7021 15.1817C11.613 14.8152 11.8845 14.6762 11.9441 14.6032ZM10.8791 29.3244L19.9354 40.6508L26.0627 32.9873C26.7292 33.5838 27.0497 33.6684 28.4629 34.3951L27.9862 32.7783C27.8653 32.3677 28.3441 31.7094 28.6333 31.4068C29.2789 31.0566 29.817 30.5572 30.2196 29.9405L35.2188 32.4508L30.5668 43.1011V46.1834H9.30327V43.1007L4.64915 32.4519L10.8791 29.3244ZM3.48085 33.3972L7.85492 43.4061V46.1834H1.24255C1.20932 43.9743 1.29135 37.0346 3.48085 33.3972Z" fill="#FF6B09"/>
</g>
<defs>
<clipPath id="clip0_1_3423">
<rect width="39.8298" height="48" fill="white"/>
</clipPath>
</defs>
</svg>
