<svg aria-hidden="true" style="position: absolute; width: 0; height: 0; overflow: hidden;" version="1.1" xmlns="http://www.w3.org/2000/svg" xmlns:xlink="http://www.w3.org/1999/xlink">
<defs>

<symbol id="logo-dark-tablet" viewBox="0 0 91 32">
<path d="M13.608 4.836v12.942h-3.661v-5.047h-4.992v5.047h-3.661v-12.942h3.661v4.863h4.992v-4.863h3.661zM27.006 12.786c0 0.025-0.018 0.314-0.055 0.869h-7.285c0.148 0.518 0.431 0.918 0.851 1.202 0.431 0.271 0.968 0.407 1.609 0.407 0.481 0 0.894-0.068 1.239-0.203 0.357-0.136 0.715-0.357 1.072-0.666l1.849 1.923c-0.974 1.085-2.397 1.627-4.271 1.627-1.171 0-2.2-0.222-3.088-0.666s-1.578-1.060-2.071-1.849c-0.481-0.789-0.721-1.683-0.721-2.681 0-0.986 0.234-1.867 0.703-2.644 0.481-0.789 1.14-1.405 1.978-1.849s1.781-0.666 2.829-0.666c0.998 0 1.904 0.21 2.718 0.629 0.814 0.407 1.454 1.005 1.923 1.793 0.481 0.777 0.721 1.701 0.721 2.773zM21.663 10.086c-0.542 0-0.998 0.154-1.368 0.462-0.357 0.308-0.586 0.727-0.684 1.257h4.105c-0.099-0.53-0.333-0.949-0.703-1.257-0.357-0.308-0.807-0.462-1.35-0.462zM29.365 4.059h3.513v13.719h-3.513v-13.719zM35.901 4.059h3.513v13.719h-3.513v-13.719z"></path>
<path fill="#ff6b09" style="fill: var(--color2, #ff6b09)" d="M5.547 26.596v3.982h-0.922v-1.633h-1.809v1.633h-0.922v-3.982h0.922v1.57h1.809v-1.57h0.922zM10.596 29.838v0.74h-3.083v-3.982h3.009v0.74h-2.094v0.865h1.849v0.717h-1.849v0.922h2.167zM12.354 26.596h0.922v3.231h1.997v0.751h-2.918v-3.982zM16.811 26.596h0.922v3.231h1.997v0.751h-2.918v-3.982zM21.268 26.596h0.922v3.982h-0.922v-3.982zM25.467 30.646c-0.315 0-0.62-0.042-0.916-0.125-0.292-0.087-0.527-0.199-0.705-0.336l0.313-0.694c0.171 0.125 0.374 0.226 0.609 0.302s0.47 0.114 0.705 0.114c0.262 0 0.455-0.038 0.58-0.114 0.125-0.080 0.188-0.184 0.188-0.313 0-0.095-0.038-0.173-0.114-0.233-0.072-0.064-0.167-0.116-0.284-0.154-0.114-0.038-0.269-0.080-0.466-0.125-0.303-0.072-0.552-0.144-0.745-0.216s-0.36-0.188-0.501-0.347c-0.137-0.159-0.205-0.372-0.205-0.637 0-0.231 0.063-0.44 0.188-0.626 0.125-0.19 0.313-0.339 0.563-0.449 0.254-0.11 0.563-0.165 0.927-0.165 0.254 0 0.502 0.030 0.745 0.091s0.455 0.148 0.637 0.262l-0.284 0.7c-0.368-0.209-0.736-0.313-1.104-0.313-0.258 0-0.449 0.042-0.575 0.125-0.121 0.083-0.182 0.193-0.182 0.33s0.070 0.239 0.21 0.307c0.144 0.064 0.362 0.129 0.654 0.193 0.303 0.072 0.552 0.144 0.745 0.216s0.358 0.186 0.495 0.341c0.14 0.156 0.21 0.366 0.21 0.631 0 0.228-0.064 0.436-0.193 0.626-0.125 0.186-0.315 0.334-0.569 0.444s-0.563 0.165-0.927 0.165zM32.463 26.596v3.982h-0.922v-1.633h-1.809v1.633h-0.922v-3.982h0.922v1.57h1.809v-1.57h0.922z"></path>
<path d="M40.148 29.838v0.74h-3.083v-3.982h3.009v0.74h-2.093v0.865h1.849v0.717h-1.849v0.922h2.167zM45.557 26.596v3.982h-0.757l-1.985-2.418v2.418h-0.91v-3.982h0.762l1.98 2.418v-2.418h0.91zM50.214 28.524h0.842v1.616c-0.216 0.163-0.467 0.288-0.751 0.375s-0.571 0.131-0.859 0.131c-0.413 0-0.785-0.087-1.115-0.262-0.33-0.178-0.59-0.423-0.779-0.734-0.186-0.315-0.279-0.669-0.279-1.064s0.093-0.747 0.279-1.058c0.19-0.315 0.451-0.559 0.785-0.734 0.334-0.178 0.709-0.267 1.126-0.267 0.349 0 0.666 0.059 0.95 0.176s0.523 0.288 0.717 0.512l-0.592 0.546c-0.284-0.3-0.628-0.449-1.030-0.449-0.254 0-0.48 0.053-0.677 0.159s-0.351 0.256-0.461 0.449c-0.11 0.193-0.165 0.415-0.165 0.666 0 0.247 0.055 0.466 0.165 0.66s0.262 0.345 0.455 0.455c0.197 0.106 0.421 0.159 0.671 0.159 0.266 0 0.504-0.057 0.717-0.171v-1.166zM52.936 26.596h0.922v3.231h1.997v0.751h-2.918v-3.982zM57.394 26.596h0.922v3.982h-0.922v-3.982zM61.593 30.646c-0.315 0-0.62-0.042-0.916-0.125-0.292-0.087-0.527-0.199-0.705-0.336l0.313-0.694c0.171 0.125 0.374 0.226 0.609 0.302s0.47 0.114 0.705 0.114c0.262 0 0.455-0.038 0.58-0.114 0.125-0.080 0.188-0.184 0.188-0.313 0-0.095-0.038-0.173-0.114-0.233-0.072-0.064-0.167-0.116-0.284-0.154-0.114-0.038-0.269-0.080-0.467-0.125-0.303-0.072-0.552-0.144-0.745-0.216s-0.36-0.188-0.501-0.347c-0.137-0.159-0.205-0.372-0.205-0.637 0-0.231 0.063-0.44 0.188-0.626 0.125-0.19 0.313-0.339 0.563-0.449 0.254-0.11 0.563-0.165 0.927-0.165 0.254 0 0.503 0.030 0.745 0.091s0.455 0.148 0.637 0.262l-0.284 0.7c-0.368-0.209-0.736-0.313-1.104-0.313-0.258 0-0.449 0.042-0.575 0.125-0.121 0.083-0.182 0.193-0.182 0.33s0.070 0.239 0.211 0.307c0.144 0.064 0.362 0.129 0.654 0.193 0.303 0.072 0.552 0.144 0.745 0.216s0.358 0.186 0.495 0.341c0.14 0.156 0.211 0.366 0.211 0.631 0 0.228-0.064 0.436-0.193 0.626-0.125 0.186-0.315 0.334-0.569 0.444s-0.563 0.165-0.927 0.165zM68.588 26.596v3.982h-0.922v-1.633h-1.809v1.633h-0.922v-3.982h0.922v1.57h1.809v-1.57h0.922z"></path>
<path d="M74.263 14.949v2.829h-10.391v-12.942h10.15v2.829h-6.527v2.182h5.75v2.736h-5.75v2.367h6.767zM89.348 4.836v12.942h-3.014l-5.713-6.896v6.896h-3.587v-12.942h3.014l5.713 6.896v-6.896h3.587z"></path>
<path fill="#ff6b09" style="fill: var(--color2, #ff6b09)" d="M58.695 11.062c-0.189-0.423-0.45-0.84-0.831-1.322-0.962-1.209-1.255-3.905-1.258-3.931-0.013-0.129-0.104-0.236-0.225-0.275-0.124-0.039-0.257-0.003-0.345 0.094-1.147 1.283-0.665 3.265-0.404 4.057 0.072 0.217 0.15 0.472 0.205 0.731 0.424 2.091-0.394 3.038-0.587 3.229-0.186 0.052-0.313 0.026-0.43-0.1-0.404-0.443-0.538-1.894-0.349-3.785 0.039-0.385 0.029-0.731-0.026-1.054-0.399-2.324-1.86-3.815-2.233-4.338-1.023-1.513-1.128-4.031-1.131-4.053-0.003-0.12-0.072-0.226-0.179-0.278-0.104-0.052-0.231-0.045-0.329 0.023-1.708 1.16-1.561 3.956-1.323 5.518 0.055 0.362 0.163 0.731 0.349 1.196 0.662 1.665-0.13 3.814-0.137 3.834s-0.013 0.036-0.016 0.055c-0.101 0.53-0.271 0.847-0.46 0.847-0.020 0-0.039-0.003-0.062-0.010-0.231-0.049-0.352-0.294-0.355-0.507-0.013-2.757-2.78-3.685-2.809-3.695-0.124-0.039-0.261-0.003-0.345 0.097-0.088 0.1-0.104 0.239-0.046 0.356 0.033 0.068 0.137 0.365 0.065 1.416-0.062 0.944-0.235 1.878-0.512 2.773-0.658 2.146-0.554 4.179-0.548 4.276 0.506 5.505 8.423 6.469 13.122 3.368 0.515-0.339 0.935-0.727 1.245-1.154 1.734-2.392 0.714-5.64-0.046-7.366zM46.652 16.321c0.010 0.178-0.127 0.33-0.306 0.339h-0.020c-0.173 0-0.316-0.133-0.326-0.304-0.029-0.472-0.023-0.966 0.013-1.503 0.013-0.178 0.169-0.31 0.349-0.301 0.179 0.013 0.316 0.168 0.303 0.346-0.036 0.511-0.042 0.976-0.013 1.422zM46.812 13.457c-0.020 0.165-0.16 0.284-0.323 0.284-0.013 0-0.026 0-0.042-0.003-0.176-0.023-0.303-0.181-0.284-0.359l0.156-1.248c0.023-0.175 0.183-0.301 0.365-0.281 0.179 0.023 0.306 0.184 0.284 0.362l-0.156 1.245z"></path>
<path fill="#ff6b09" style="fill: var(--color2, #ff6b09)" d="M56.49 4.422c-0.178-0.027-0.3-0.192-0.272-0.368 0.020-0.131 0.138-0.804 0.458-1.142 0.123-0.13 0.329-0.137 0.461-0.015s0.138 0.327 0.015 0.457c-0.135 0.143-0.25 0.553-0.289 0.798-0.028 0.174-0.191 0.297-0.372 0.27z"></path>
<path fill="#ff6b09" style="fill: var(--color2, #ff6b09)" d="M44.608 6.032c-0.062-0.24-0.217-0.637-0.366-0.766-0.135-0.118-0.149-0.322-0.030-0.456s0.324-0.148 0.46-0.030c0.351 0.305 0.535 0.963 0.568 1.092 0.045 0.173-0.060 0.349-0.235 0.393-0.178 0.044-0.353-0.063-0.397-0.232z"></path>
</symbol>
<symbol id="logo-light-tablet" viewBox="0 0 91 32">
<path fill="#fff" style="fill: var(--color1, #fff)" d="M13.608 4.836v12.942h-3.661v-5.047h-4.992v5.047h-3.661v-12.942h3.661v4.863h4.992v-4.863h3.661zM27.006 12.786c0 0.025-0.018 0.314-0.055 0.869h-7.285c0.148 0.518 0.431 0.918 0.851 1.202 0.431 0.271 0.968 0.407 1.609 0.407 0.481 0 0.894-0.068 1.239-0.203 0.357-0.136 0.715-0.357 1.072-0.666l1.849 1.923c-0.974 1.085-2.397 1.627-4.271 1.627-1.171 0-2.2-0.222-3.088-0.666s-1.578-1.060-2.071-1.849c-0.481-0.789-0.721-1.683-0.721-2.681 0-0.986 0.234-1.867 0.703-2.644 0.481-0.789 1.14-1.405 1.978-1.849s1.781-0.666 2.829-0.666c0.998 0 1.904 0.21 2.718 0.629 0.814 0.407 1.454 1.005 1.923 1.793 0.481 0.777 0.721 1.701 0.721 2.773zM21.663 10.086c-0.542 0-0.998 0.154-1.368 0.462-0.357 0.308-0.586 0.727-0.684 1.257h4.105c-0.099-0.53-0.333-0.949-0.703-1.257-0.357-0.308-0.807-0.462-1.35-0.462zM29.365 4.059h3.513v13.719h-3.513v-13.719zM35.901 4.059h3.513v13.719h-3.513v-13.719z"></path>
<path fill="#ff6b09" style="fill: var(--color2, #ff6b09)" d="M5.547 26.596v3.982h-0.922v-1.633h-1.809v1.633h-0.922v-3.982h0.922v1.57h1.809v-1.57h0.922zM10.596 29.838v0.74h-3.083v-3.982h3.009v0.74h-2.094v0.865h1.849v0.717h-1.849v0.922h2.167zM12.354 26.596h0.922v3.231h1.997v0.751h-2.918v-3.982zM16.811 26.596h0.922v3.231h1.997v0.751h-2.918v-3.982zM21.268 26.596h0.922v3.982h-0.922v-3.982zM25.467 30.646c-0.315 0-0.62-0.042-0.916-0.125-0.292-0.087-0.527-0.199-0.705-0.336l0.313-0.694c0.171 0.125 0.374 0.226 0.609 0.302s0.47 0.114 0.705 0.114c0.262 0 0.455-0.038 0.58-0.114 0.125-0.080 0.188-0.184 0.188-0.313 0-0.095-0.038-0.173-0.114-0.233-0.072-0.064-0.167-0.116-0.284-0.154-0.114-0.038-0.269-0.080-0.466-0.125-0.303-0.072-0.552-0.144-0.745-0.216s-0.36-0.188-0.501-0.347c-0.137-0.159-0.205-0.372-0.205-0.637 0-0.231 0.063-0.44 0.188-0.626 0.125-0.19 0.313-0.339 0.563-0.449 0.254-0.11 0.563-0.165 0.927-0.165 0.254 0 0.502 0.030 0.745 0.091s0.455 0.148 0.637 0.262l-0.284 0.7c-0.368-0.209-0.736-0.313-1.104-0.313-0.258 0-0.449 0.042-0.575 0.125-0.121 0.083-0.182 0.193-0.182 0.33s0.070 0.239 0.21 0.307c0.144 0.064 0.362 0.129 0.654 0.193 0.303 0.072 0.552 0.144 0.745 0.216s0.358 0.186 0.495 0.341c0.14 0.156 0.21 0.366 0.21 0.631 0 0.228-0.064 0.436-0.193 0.626-0.125 0.186-0.315 0.334-0.569 0.444s-0.563 0.165-0.927 0.165zM32.463 26.596v3.982h-0.922v-1.633h-1.809v1.633h-0.922v-3.982h0.922v1.57h1.809v-1.57h0.922z"></path>
<path fill="#fff" style="fill: var(--color1, #fff)" d="M40.148 29.838v0.74h-3.083v-3.982h3.009v0.74h-2.093v0.865h1.849v0.717h-1.849v0.922h2.167zM45.557 26.596v3.982h-0.757l-1.985-2.418v2.418h-0.91v-3.982h0.762l1.98 2.418v-2.418h0.91zM50.214 28.524h0.842v1.616c-0.216 0.163-0.467 0.288-0.751 0.375s-0.571 0.131-0.859 0.131c-0.413 0-0.785-0.087-1.115-0.262-0.33-0.178-0.59-0.423-0.779-0.734-0.186-0.315-0.279-0.669-0.279-1.064s0.093-0.747 0.279-1.058c0.19-0.315 0.451-0.559 0.785-0.734 0.334-0.178 0.709-0.267 1.126-0.267 0.349 0 0.666 0.059 0.95 0.176s0.523 0.288 0.717 0.512l-0.592 0.546c-0.284-0.3-0.628-0.449-1.030-0.449-0.254 0-0.48 0.053-0.677 0.159s-0.351 0.256-0.461 0.449c-0.11 0.193-0.165 0.415-0.165 0.666 0 0.247 0.055 0.466 0.165 0.66s0.262 0.345 0.455 0.455c0.197 0.106 0.421 0.159 0.671 0.159 0.266 0 0.504-0.057 0.717-0.171v-1.166zM52.936 26.596h0.922v3.231h1.997v0.751h-2.918v-3.982zM57.394 26.596h0.922v3.982h-0.922v-3.982zM61.593 30.646c-0.315 0-0.62-0.042-0.916-0.125-0.292-0.087-0.527-0.199-0.705-0.336l0.313-0.694c0.171 0.125 0.374 0.226 0.609 0.302s0.47 0.114 0.705 0.114c0.262 0 0.455-0.038 0.58-0.114 0.125-0.080 0.188-0.184 0.188-0.313 0-0.095-0.038-0.173-0.114-0.233-0.072-0.064-0.167-0.116-0.284-0.154-0.114-0.038-0.269-0.080-0.467-0.125-0.303-0.072-0.552-0.144-0.745-0.216s-0.36-0.188-0.501-0.347c-0.137-0.159-0.205-0.372-0.205-0.637 0-0.231 0.063-0.44 0.188-0.626 0.125-0.19 0.313-0.339 0.563-0.449 0.254-0.11 0.563-0.165 0.927-0.165 0.254 0 0.503 0.030 0.745 0.091s0.455 0.148 0.637 0.262l-0.284 0.7c-0.368-0.209-0.736-0.313-1.104-0.313-0.258 0-0.449 0.042-0.575 0.125-0.121 0.083-0.182 0.193-0.182 0.33s0.070 0.239 0.211 0.307c0.144 0.064 0.362 0.129 0.654 0.193 0.303 0.072 0.552 0.144 0.745 0.216s0.358 0.186 0.495 0.341c0.14 0.156 0.211 0.366 0.211 0.631 0 0.228-0.064 0.436-0.193 0.626-0.125 0.186-0.315 0.334-0.569 0.444s-0.563 0.165-0.927 0.165zM68.588 26.596v3.982h-0.922v-1.633h-1.809v1.633h-0.922v-3.982h0.922v1.57h1.809v-1.57h0.922z"></path>
<path fill="#fff" style="fill: var(--color1, #fff)" d="M74.263 14.949v2.829h-10.391v-12.942h10.15v2.829h-6.527v2.182h5.75v2.736h-5.75v2.367h6.767zM89.348 4.836v12.942h-3.014l-5.713-6.896v6.896h-3.587v-12.942h3.014l5.713 6.896v-6.896h3.587z"></path>
<path fill="#ff6b09" style="fill: var(--color2, #ff6b09)" d="M58.695 11.062c-0.189-0.423-0.45-0.84-0.831-1.322-0.962-1.209-1.255-3.905-1.258-3.931-0.013-0.129-0.104-0.236-0.225-0.275-0.124-0.039-0.257-0.003-0.345 0.094-1.147 1.283-0.665 3.265-0.404 4.057 0.072 0.217 0.15 0.472 0.205 0.731 0.424 2.091-0.394 3.038-0.587 3.229-0.186 0.052-0.313 0.026-0.43-0.1-0.404-0.443-0.538-1.894-0.349-3.785 0.039-0.385 0.029-0.731-0.026-1.054-0.399-2.324-1.86-3.815-2.233-4.338-1.023-1.513-1.128-4.031-1.131-4.053-0.003-0.12-0.072-0.226-0.179-0.278-0.104-0.052-0.231-0.045-0.329 0.023-1.708 1.16-1.561 3.956-1.323 5.518 0.055 0.362 0.163 0.731 0.349 1.196 0.662 1.665-0.13 3.814-0.137 3.834s-0.013 0.036-0.016 0.055c-0.101 0.53-0.271 0.847-0.46 0.847-0.020 0-0.039-0.003-0.062-0.010-0.231-0.049-0.352-0.294-0.355-0.507-0.013-2.757-2.78-3.685-2.809-3.695-0.124-0.039-0.261-0.003-0.345 0.097-0.088 0.1-0.104 0.239-0.046 0.356 0.033 0.068 0.137 0.365 0.065 1.416-0.062 0.944-0.235 1.878-0.512 2.773-0.658 2.146-0.554 4.179-0.548 4.276 0.506 5.505 8.423 6.469 13.122 3.368 0.515-0.339 0.935-0.727 1.245-1.154 1.734-2.392 0.714-5.64-0.046-7.366zM46.652 16.321c0.010 0.178-0.127 0.33-0.306 0.339h-0.020c-0.173 0-0.316-0.133-0.326-0.304-0.029-0.472-0.023-0.966 0.013-1.503 0.013-0.178 0.169-0.31 0.349-0.301 0.179 0.013 0.316 0.168 0.303 0.346-0.036 0.511-0.042 0.976-0.013 1.422zM46.812 13.457c-0.020 0.165-0.16 0.284-0.323 0.284-0.013 0-0.026 0-0.042-0.003-0.176-0.023-0.303-0.181-0.284-0.359l0.156-1.248c0.023-0.175 0.183-0.301 0.365-0.281 0.179 0.023 0.306 0.184 0.284 0.362l-0.156 1.245z"></path>
<path fill="#ff6b09" style="fill: var(--color2, #ff6b09)" d="M56.49 4.422c-0.178-0.027-0.3-0.192-0.272-0.368 0.020-0.131 0.138-0.804 0.458-1.142 0.123-0.13 0.329-0.137 0.461-0.015s0.138 0.327 0.015 0.457c-0.135 0.143-0.25 0.553-0.289 0.798-0.028 0.174-0.191 0.297-0.372 0.27z"></path>
<path fill="#ff6b09" style="fill: var(--color2, #ff6b09)" d="M44.608 6.032c-0.062-0.24-0.217-0.637-0.366-0.766-0.135-0.118-0.149-0.322-0.030-0.456s0.324-0.148 0.46-0.030c0.351 0.305 0.535 0.963 0.568 1.092 0.045 0.173-0.060 0.349-0.235 0.393-0.178 0.044-0.353-0.063-0.397-0.232z"></path>
</symbol>
<symbol id="dark-mobile" viewBox="0 0 88 32">
<path fill="#111518" style="fill: var(--color3, #111518)" d="M12.345 4.825v12.913h-3.67v-5.036h-5.005v5.036h-3.67v-12.913h3.67v4.851h5.005v-4.851h3.67z"></path>
<path fill="#111518" style="fill: var(--color3, #111518)" d="M25.777 12.757c0 0.025-0.019 0.314-0.056 0.867h-7.303c0.148 0.517 0.433 0.916 0.853 1.199 0.433 0.271 0.97 0.406 1.613 0.406 0.482 0 0.896-0.068 1.242-0.203 0.358-0.135 0.717-0.357 1.075-0.664l1.854 1.918c-0.976 1.082-2.403 1.623-4.282 1.623-1.174 0-2.206-0.221-3.096-0.664s-1.582-1.058-2.076-1.845c-0.482-0.787-0.723-1.679-0.723-2.675 0-0.984 0.235-1.863 0.704-2.638 0.482-0.787 1.143-1.402 1.983-1.845s1.786-0.664 2.836-0.664c1.001 0 1.909 0.209 2.725 0.627 0.816 0.406 1.458 1.002 1.928 1.789 0.482 0.775 0.723 1.697 0.723 2.767zM20.42 10.064c-0.544 0-1.001 0.154-1.372 0.461-0.358 0.307-0.587 0.726-0.686 1.254h4.115c-0.099-0.529-0.334-0.947-0.704-1.254-0.358-0.307-0.809-0.461-1.353-0.461z"></path>
<path fill="#111518" style="fill: var(--color3, #111518)" d="M28.142 4.050h3.522v13.688h-3.522v-13.688z"></path>
<path fill="#111518" style="fill: var(--color3, #111518)" d="M34.694 4.050h3.522v13.688h-3.522v-13.688z"></path>
<path fill="#ff6b09" style="fill: var(--color2, #ff6b09)" d="M4 27.066v3.862h-0.894v-1.583h-1.754v1.583h-0.894v-3.862h0.894v1.523h1.754v-1.523h0.894zM8.897 30.211v0.717h-2.99v-3.862h2.919v0.717h-2.030v0.839h1.793v0.695h-1.793v0.894h2.102zM10.601 27.066h0.894v3.134h1.937v0.728h-2.83v-3.862zM14.924 27.066h0.894v3.134h1.937v0.728h-2.83v-3.862zM19.247 27.066h0.894v3.862h-0.894v-3.862zM23.32 30.995c-0.305 0-0.601-0.041-0.888-0.121-0.283-0.085-0.511-0.193-0.684-0.326l0.303-0.673c0.166 0.121 0.362 0.219 0.59 0.292s0.456 0.11 0.684 0.11c0.254 0 0.441-0.037 0.563-0.11 0.121-0.077 0.182-0.178 0.182-0.303 0-0.092-0.037-0.167-0.11-0.226-0.070-0.063-0.162-0.112-0.276-0.149-0.11-0.037-0.261-0.077-0.452-0.121-0.294-0.070-0.535-0.14-0.723-0.21s-0.349-0.182-0.486-0.337c-0.132-0.154-0.199-0.36-0.199-0.618 0-0.224 0.061-0.427 0.182-0.607 0.121-0.184 0.303-0.329 0.546-0.436 0.246-0.107 0.546-0.16 0.899-0.16 0.246 0 0.487 0.029 0.723 0.088s0.441 0.143 0.618 0.254l-0.276 0.679c-0.357-0.202-0.714-0.303-1.070-0.303-0.25 0-0.436 0.041-0.557 0.121-0.118 0.081-0.177 0.188-0.177 0.32s0.068 0.232 0.204 0.298c0.14 0.063 0.351 0.125 0.634 0.188 0.294 0.070 0.535 0.14 0.723 0.21s0.348 0.18 0.48 0.331c0.136 0.151 0.204 0.355 0.204 0.612 0 0.221-0.063 0.423-0.188 0.607-0.121 0.18-0.305 0.324-0.552 0.43s-0.546 0.16-0.899 0.16zM30.104 27.066v3.862h-0.894v-1.583h-1.754v1.583h-0.894v-3.862h0.894v1.523h1.754v-1.523h0.894z"></path>
<path fill="#111518" style="fill: var(--color3, #111518)" d="M37.557 30.211v0.717h-2.99v-3.862h2.919v0.717h-2.030v0.839h1.793v0.695h-1.793v0.894h2.102zM42.803 27.066v3.862h-0.734l-1.926-2.345v2.345h-0.883v-3.862h0.739l1.92 2.345v-2.345h0.883zM47.32 28.937h0.817v1.567c-0.21 0.158-0.452 0.279-0.728 0.364s-0.554 0.127-0.833 0.127c-0.401 0-0.761-0.085-1.081-0.254-0.32-0.173-0.572-0.41-0.756-0.712-0.18-0.305-0.27-0.649-0.27-1.032s0.090-0.725 0.27-1.026c0.184-0.305 0.438-0.543 0.761-0.712 0.324-0.173 0.688-0.259 1.092-0.259 0.338 0 0.646 0.057 0.921 0.171s0.508 0.279 0.695 0.497l-0.574 0.53c-0.276-0.291-0.609-0.436-0.999-0.436-0.246 0-0.465 0.052-0.657 0.154s-0.34 0.248-0.447 0.436c-0.107 0.188-0.16 0.403-0.16 0.646 0 0.239 0.053 0.452 0.16 0.64s0.254 0.335 0.441 0.441c0.191 0.103 0.408 0.154 0.651 0.154 0.257 0 0.489-0.055 0.695-0.166v-1.131zM49.96 27.066h0.894v3.134h1.937v0.728h-2.83v-3.862zM54.282 27.066h0.894v3.862h-0.894v-3.862zM58.355 30.995c-0.305 0-0.601-0.041-0.888-0.121-0.283-0.085-0.511-0.193-0.684-0.326l0.303-0.673c0.166 0.121 0.362 0.219 0.59 0.292s0.456 0.11 0.684 0.11c0.254 0 0.441-0.037 0.563-0.11 0.121-0.077 0.182-0.178 0.182-0.303 0-0.092-0.037-0.167-0.11-0.226-0.070-0.063-0.162-0.112-0.276-0.149-0.11-0.037-0.261-0.077-0.452-0.121-0.294-0.070-0.535-0.14-0.723-0.21s-0.349-0.182-0.486-0.337c-0.132-0.154-0.199-0.36-0.199-0.618 0-0.224 0.061-0.427 0.182-0.607 0.121-0.184 0.303-0.329 0.546-0.436 0.246-0.107 0.546-0.16 0.899-0.16 0.246 0 0.487 0.029 0.723 0.088s0.441 0.143 0.618 0.254l-0.276 0.679c-0.357-0.202-0.714-0.303-1.070-0.303-0.25 0-0.436 0.041-0.557 0.121-0.118 0.081-0.177 0.188-0.177 0.32s0.068 0.232 0.204 0.298c0.14 0.063 0.351 0.125 0.634 0.188 0.294 0.070 0.535 0.14 0.723 0.21s0.348 0.18 0.48 0.331c0.136 0.151 0.204 0.355 0.204 0.612 0 0.221-0.062 0.423-0.188 0.607-0.121 0.18-0.305 0.324-0.552 0.43s-0.546 0.16-0.899 0.16zM65.139 27.066v3.862h-0.894v-1.583h-1.754v1.583h-0.894v-3.862h0.894v1.523h1.754v-1.523h0.894z"></path>
<path fill="#111518" style="fill: var(--color3, #111518)" d="M73.153 14.915v2.822h-10.417v-12.913h10.176v2.822h-6.543v2.177h5.765v2.73h-5.765v2.361h6.784z"></path>
<path fill="#111518" style="fill: var(--color3, #111518)" d="M88.276 4.824v12.913h-3.021l-5.728-6.881v6.881h-3.596v-12.913h3.021l5.728 6.881v-6.881h3.596z"></path>
<path fill="#ff6b09" style="fill: var(--color2, #ff6b09)" d="M57.546 11.037c-0.189-0.422-0.451-0.838-0.833-1.319-0.964-1.206-1.258-3.896-1.261-3.922-0.013-0.129-0.105-0.235-0.225-0.274-0.124-0.039-0.258-0.003-0.346 0.094-1.15 1.28-0.667 3.257-0.405 4.047 0.072 0.216 0.15 0.471 0.206 0.729 0.425 2.086-0.395 3.031-0.588 3.222-0.186 0.052-0.314 0.026-0.431-0.1-0.405-0.442-0.539-1.89-0.35-3.776 0.039-0.384 0.029-0.729-0.026-1.051-0.4-2.319-1.865-3.806-2.238-4.328-1.026-1.509-1.131-4.022-1.134-4.044-0.003-0.119-0.072-0.226-0.18-0.277-0.105-0.052-0.232-0.045-0.33 0.023-1.712 1.158-1.565 3.947-1.327 5.505 0.056 0.361 0.163 0.729 0.35 1.193 0.663 1.661-0.131 3.805-0.137 3.825s-0.013 0.035-0.016 0.055c-0.101 0.529-0.271 0.845-0.461 0.845-0.020 0-0.039-0.003-0.062-0.010-0.232-0.048-0.353-0.294-0.356-0.506-0.013-2.751-2.787-3.676-2.817-3.686-0.124-0.039-0.261-0.003-0.346 0.097-0.088 0.1-0.105 0.239-0.046 0.355 0.033 0.068 0.137 0.364 0.065 1.413-0.062 0.942-0.235 1.874-0.513 2.767-0.66 2.141-0.555 4.17-0.549 4.267 0.507 5.492 8.444 6.455 13.155 3.36 0.516-0.339 0.938-0.726 1.248-1.151 1.738-2.387 0.716-5.628-0.046-7.35zM45.473 16.284c0.010 0.177-0.127 0.329-0.307 0.339h-0.020c-0.173 0-0.317-0.132-0.327-0.303-0.029-0.471-0.023-0.964 0.013-1.5 0.013-0.177 0.17-0.31 0.35-0.3 0.18 0.013 0.317 0.168 0.304 0.345-0.036 0.51-0.042 0.974-0.013 1.419zM45.633 13.426c-0.020 0.164-0.16 0.284-0.323 0.284-0.013 0-0.026 0-0.042-0.003-0.176-0.023-0.304-0.181-0.284-0.358l0.157-1.245c0.023-0.174 0.183-0.3 0.366-0.281 0.18 0.023 0.307 0.184 0.284 0.361l-0.157 1.242z"></path>
<path fill="#ff6b09" style="fill: var(--color2, #ff6b09)" d="M55.336 4.412c-0.178-0.027-0.3-0.192-0.273-0.367 0.020-0.131 0.138-0.802 0.459-1.139 0.123-0.13 0.33-0.137 0.462-0.015s0.138 0.326 0.015 0.456c-0.136 0.143-0.251 0.552-0.29 0.796-0.028 0.174-0.192 0.296-0.373 0.269z"></path>
<path fill="#ff6b09" style="fill: var(--color2, #ff6b09)" d="M43.424 6.018c-0.063-0.24-0.218-0.635-0.367-0.764-0.136-0.117-0.149-0.321-0.030-0.455s0.325-0.148 0.461-0.030c0.352 0.305 0.536 0.961 0.569 1.089 0.045 0.172-0.061 0.348-0.235 0.392-0.178 0.044-0.353-0.062-0.398-0.232z"></path>
</symbol>


</defs>
</svg>




