<svg aria-hidden="true" style="position: absolute; width: 0; height: 0; overflow: hidden;" version="1.1" xmlns="http://www.w3.org/2000/svg" xmlns:xlink="http://www.w3.org/1999/xlink">
<defs>
<symbol id="footer-tel-icon" viewBox="0 0 34 32">
<path fill="#ff6b09" style="" d="M4.902 0.003c-0.542 0.025-1.075 0.253-1.465 0.678l-2.731 2.969c0.004-0.009-0.011-0.008-0.088 0.101-0.041 0.056-0.073 0.118-0.095 0.184-1.112 3.502-0.366 7.354 1.449 11.018s4.711 7.17 8.035 10.047 7.075 5.128 10.651 6.244c3.576 1.116 7.044 1.102 9.614-0.742 0.028-0.020 0.054-0.043 0.078-0.067 0.067-0.067 0.070-0.075 0.059-0.065l0.010-0.013 2.718-2.956c0.781-0.849 0.718-2.184-0.141-2.956l-6.448-5.799c-0.859-0.772-2.208-0.711-2.989 0.138l-2.918 3.173c-2.368-0.678-4.393-1.828-6.34-3.579s-3.297-3.637-4.203-5.905l2.917-3.173c0.781-0.849 0.719-2.184-0.14-2.956l-6.448-5.799c-0.429-0.386-0.982-0.564-1.524-0.539l-0.001 0zM4.963 1.304c0.2-0.009 0.403 0.060 0.569 0.209l6.448 5.799c0.332 0.299 0.355 0.776 0.053 1.104l-3.224 3.504c-0.081 0.089-0.136 0.197-0.159 0.315s-0.013 0.239 0.028 0.351c0.979 2.641 2.557 4.807 4.729 6.761s4.5 3.304 7.251 4.017c0.117 0.030 0.241 0.029 0.357-0.005s0.221-0.099 0.302-0.187l3.225-3.505c0.302-0.328 0.784-0.35 1.116-0.051l6.449 5.8c0.332 0.299 0.354 0.775 0.052 1.103l-2.696 2.931c-2.109 1.497-5.080 1.581-8.406 0.542-3.34-1.043-6.966-3.202-10.175-5.98s-6.002-6.169-7.718-9.633c-1.699-3.429-2.315-6.895-1.381-9.95l2.634-2.862c0.151-0.164 0.348-0.252 0.547-0.261l0 0z"></path>
</symbol>
</defs>
</svg>
