<svg aria-hidden="true" style="position: absolute; width: 0; height: 0; overflow: hidden;" version="1.1" xmlns="http://www.w3.org/2000/svg" xmlns:xlink="http://www.w3.org/1999/xlink">
<defs>
<symbol id="icon-Vector" viewBox="0 0 40 32">
<path fill="#ff6b09" style="fill: var(--color1, #ff6b09)" d="M34.457 1.514c-1.484 0.664-2.907 1.475-4.265 2.379-2.731 1.797-5.228 3.936-7.57 6.218-2.341 2.287-4.52 4.735-6.581 7.28-0.515 0.636-2.823 3.47-2.823 3.47l-9.596-14.38-3.623 10.042 12.977 15.477c1.26-2.551 2.473-5.070 3.662-7.258 0.296-0.556 0.605-1.080 0.901-1.612 0 0 1.523-2.677 1.924-3.352 1.601-2.697 3.332-5.325 5.239-7.821 1.908-2.491 3.983-4.87 6.335-6.961 1.17-1.052 2.416-2.025 3.751-2.872 1.332-0.848 2.747-1.591 4.261-2.125-1.575 0.31-3.111 0.848-4.592 1.514z"></path>
</symbol>
<symbol id="icon-menu_24px" viewBox="0 0 48 32">
<path d="M0 5.333v-5.333h48v5.333h-48zM0 18.667h48v-5.333h-48v5.333zM0 32h48v-5.333h-48v5.333z"></path>
</symbol>
<symbol id="icon-Vectormail" viewBox="0 0 43 32">
<path d="M37.333 0h-32c-2.2 0-3.98 1.8-3.98 4l-0.020 24c0 2.2 1.8 4 4 4h32c2.2 0 4-1.8 4-4v-24c0-2.2-1.8-4-4-4zM36.533 8.5l-14.14 8.84c-0.64 0.4-1.48 0.4-2.12 0l-14.14-8.84c-0.5-0.32-0.8-0.86-0.8-1.44 0-1.34 1.46-2.14 2.6-1.44l13.4 8.38 13.4-8.38c1.14-0.7 2.6 0.1 2.6 1.44 0 0.58-0.3 1.12-0.8 1.44z"></path>
</symbol>
<symbol id="icon-Cross" viewBox="0 0 32 32">
<path d="M32 3.223l-3.223-3.223-12.777 12.777-12.777-12.777-3.223 3.223 12.777 12.777-12.777 12.777 3.223 3.223 12.777-12.777 12.777 12.777 3.223-3.223-12.777-12.777 12.777-12.777z"></path>
</symbol>
<symbol id="icon-Bird" viewBox="0 0 40 32">
<path fill="#ff6b09" style="fill: var(--color1, #ff6b09)" d="M34.457 1.514c-1.484 0.664-2.907 1.475-4.265 2.379-2.731 1.797-5.228 3.936-7.57 6.218-2.341 2.287-4.52 4.735-6.581 7.28-0.515 0.636-2.823 3.47-2.823 3.47l-9.596-14.38-3.623 10.042 12.977 15.477c1.26-2.551 2.473-5.070 3.662-7.258 0.296-0.556 0.605-1.080 0.901-1.612 0 0 1.523-2.677 1.924-3.352 1.601-2.697 3.332-5.325 5.239-7.821 1.908-2.491 3.983-4.87 6.335-6.961 1.17-1.052 2.416-2.025 3.751-2.872 1.332-0.848 2.747-1.591 4.261-2.125-1.575 0.31-3.111 0.848-4.592 1.514z"></path>
</symbol>
<symbol id="icon-Line" viewBox="0 0 213 32">
<path fill="#ff6b09" style="fill: var(--color1, #ff6b09)" d="M0 4.267h213.333v20.693h-213.333v-20.693z"></path>
</symbol>
</defs>
</svg>
